<svg width="76" height="76" viewBox="0 0 76 76" fill="none" xmlns="http://www.w3.org/2000/svg">
<rect width="76" height="76" fill="#F2F2F2"/>
<g clip-path="url(#clip0_0_1)">
<rect width="1440" height="4175" transform="translate(-959 -1505)" fill="white"/>
<g filter="url(#filter0_d_0_1)">
<rect x="-31" y="-427" width="344" height="351" rx="15" fill="white"/>
</g>
<g filter="url(#filter1_d_0_1)">
<rect x="-31" y="-29" width="344" height="351" rx="15" fill="white"/>
</g>
<rect width="76" height="76" rx="38" fill="#27AE60"/>
<path d="M42.031 26V21.969H33.968V26H42.031ZM54.031 26C56.281 26 57.969 27.781 57.969 30.031V51.969C57.969 54.219 56.281 56 54.031 56H21.968C19.718 56 18.03 54.219 18.03 51.969V30.031C18.03 27.781 19.718 26 21.968 26H30.031V21.969C30.031 19.719 31.719 18.031 33.969 18.031H42.032C44.282 18.031 45.97 19.719 45.97 21.969V26H54.033H54.031Z" fill="#333333"/>
</g>
<defs>
<filter id="filter0_d_0_1" x="-108" y="-504" width="498" height="505" filterUnits="userSpaceOnUse" color-interpolation-filters="sRGB">
<feFlood flood-opacity="0" result="BackgroundImageFix"/>
<feColorMatrix in="SourceAlpha" type="matrix" values="0 0 0 0 0 0 0 0 0 0 0 0 0 0 0 0 0 0 127 0" result="hardAlpha"/>
<feOffset/>
<feGaussianBlur stdDeviation="38.5"/>
<feColorMatrix type="matrix" values="0 0 0 0 0 0 0 0 0 0 0 0 0 0 0 0 0 0 0.06 0"/>
<feBlend mode="normal" in2="BackgroundImageFix" result="effect1_dropShadow_0_1"/>
<feBlend mode="normal" in="SourceGraphic" in2="effect1_dropShadow_0_1" result="shape"/>
</filter>
<filter id="filter1_d_0_1" x="-108" y="-106" width="498" height="505" filterUnits="userSpaceOnUse" color-interpolation-filters="sRGB">
<feFlood flood-opacity="0" result="BackgroundImageFix"/>
<feColorMatrix in="SourceAlpha" type="matrix" values="0 0 0 0 0 0 0 0 0 0 0 0 0 0 0 0 0 0 127 0" result="hardAlpha"/>
<feOffset/>
<feGaussianBlur stdDeviation="38.5"/>
<feColorMatrix type="matrix" values="0 0 0 0 0 0 0 0 0 0 0 0 0 0 0 0 0 0 0.06 0"/>
<feBlend mode="normal" in2="BackgroundImageFix" result="effect1_dropShadow_0_1"/>
<feBlend mode="normal" in="SourceGraphic" in2="effect1_dropShadow_0_1" result="shape"/>
</filter>
<clipPath id="clip0_0_1">
<rect width="1440" height="4175" fill="white" transform="translate(-959 -1505)"/>
</clipPath>
</defs>
</svg>
