<svg width="76" height="76" viewBox="0 0 76 76" fill="none" xmlns="http://www.w3.org/2000/svg">
<rect width="76" height="76" fill="#F2F2F2"/>
<g clip-path="url(#clip0_0_1)">
<rect width="1440" height="4175" transform="translate(-177 -1101)" fill="white"/>
<g filter="url(#filter0_d_0_1)">
<rect x="-31" y="-29" width="344" height="351" rx="15" fill="white"/>
</g>
<rect width="76" height="76" rx="38" fill="#717CFF"/>
<path d="M46.438 50L44.188 40.344L51.688 33.875L41.844 33.031L38 24.031L34.156 33.125L24.312 33.875L31.812 40.344L29.562 50L38 44.937L46.438 50ZM38 18.031C49.063 18.031 57.969 26.937 57.969 38C57.969 49.063 49.063 57.969 38 57.969C26.937 57.969 18.031 49.063 18.031 38C18.031 26.937 26.937 18.031 38 18.031Z" fill="#333333"/>
</g>
<defs>
<filter id="filter0_d_0_1" x="-108" y="-106" width="498" height="505" filterUnits="userSpaceOnUse" color-interpolation-filters="sRGB">
<feFlood flood-opacity="0" result="BackgroundImageFix"/>
<feColorMatrix in="SourceAlpha" type="matrix" values="0 0 0 0 0 0 0 0 0 0 0 0 0 0 0 0 0 0 127 0" result="hardAlpha"/>
<feOffset/>
<feGaussianBlur stdDeviation="38.5"/>
<feColorMatrix type="matrix" values="0 0 0 0 0 0 0 0 0 0 0 0 0 0 0 0 0 0 0.06 0"/>
<feBlend mode="normal" in2="BackgroundImageFix" result="effect1_dropShadow_0_1"/>
<feBlend mode="normal" in="SourceGraphic" in2="effect1_dropShadow_0_1" result="shape"/>
</filter>
<clipPath id="clip0_0_1">
<rect width="1440" height="4175" fill="white" transform="translate(-177 -1101)"/>
</clipPath>
</defs>
</svg>
