<svg width="76" height="76" viewBox="0 0 76 76" fill="none" xmlns="http://www.w3.org/2000/svg">
<rect width="76" height="76" fill="#F2F2F2"/>
<g clip-path="url(#clip0_0_1)">
<rect width="1440" height="4175" transform="translate(-568 -1505)" fill="white"/>
<g filter="url(#filter0_d_0_1)">
<rect x="-31" y="-427" width="344" height="351" rx="15" fill="white"/>
</g>
<g filter="url(#filter1_d_0_1)">
<rect x="-31" y="-29" width="344" height="351" rx="15" fill="white"/>
</g>
<rect width="76" height="76" rx="38" fill="#FA706C"/>
<path d="M38 54.031C40.531 54.031 42.969 53.281 45.031 52.062L25.906 32.937C24.687 35 24.031 37.437 24.031 39.968C24.031 47.749 30.219 54.031 38 54.031ZM20 21.969L55.531 57.5L53 60.031L47.937 54.968C45.031 56.843 41.656 57.968 37.999 57.968C28.061 57.968 19.999 49.905 19.999 39.968C19.999 36.312 21.124 32.843 22.999 30.03L17.468 24.499L20 21.969ZM36.031 32.844V30.031H39.969V36.875L36.031 32.844ZM44 15.969V20H32V15.969H44ZM52.063 23.094L54.876 25.907L52.063 28.813C54.501 31.907 56.001 35.751 56.001 39.969C56.001 43.625 54.876 47.094 53.001 49.907L50.095 47.001C51.314 44.938 51.97 42.501 51.97 39.97C51.97 32.189 45.782 26.001 38.001 26.001C35.47 26.001 33.126 26.657 31.063 27.876L28.063 24.97C30.876 23.095 34.344 21.97 38.001 21.97C42.22 21.97 46.157 23.47 49.251 25.908L52.063 23.094Z" fill="#333333"/>
</g>
<defs>
<filter id="filter0_d_0_1" x="-108" y="-504" width="498" height="505" filterUnits="userSpaceOnUse" color-interpolation-filters="sRGB">
<feFlood flood-opacity="0" result="BackgroundImageFix"/>
<feColorMatrix in="SourceAlpha" type="matrix" values="0 0 0 0 0 0 0 0 0 0 0 0 0 0 0 0 0 0 127 0" result="hardAlpha"/>
<feOffset/>
<feGaussianBlur stdDeviation="38.5"/>
<feColorMatrix type="matrix" values="0 0 0 0 0 0 0 0 0 0 0 0 0 0 0 0 0 0 0.06 0"/>
<feBlend mode="normal" in2="BackgroundImageFix" result="effect1_dropShadow_0_1"/>
<feBlend mode="normal" in="SourceGraphic" in2="effect1_dropShadow_0_1" result="shape"/>
</filter>
<filter id="filter1_d_0_1" x="-108" y="-106" width="498" height="505" filterUnits="userSpaceOnUse" color-interpolation-filters="sRGB">
<feFlood flood-opacity="0" result="BackgroundImageFix"/>
<feColorMatrix in="SourceAlpha" type="matrix" values="0 0 0 0 0 0 0 0 0 0 0 0 0 0 0 0 0 0 127 0" result="hardAlpha"/>
<feOffset/>
<feGaussianBlur stdDeviation="38.5"/>
<feColorMatrix type="matrix" values="0 0 0 0 0 0 0 0 0 0 0 0 0 0 0 0 0 0 0.06 0"/>
<feBlend mode="normal" in2="BackgroundImageFix" result="effect1_dropShadow_0_1"/>
<feBlend mode="normal" in="SourceGraphic" in2="effect1_dropShadow_0_1" result="shape"/>
</filter>
<clipPath id="clip0_0_1">
<rect width="1440" height="4175" fill="white" transform="translate(-568 -1505)"/>
</clipPath>
</defs>
</svg>
