<svg width="76" height="76" viewBox="0 0 76 76" fill="none" xmlns="http://www.w3.org/2000/svg">
<rect width="76" height="76" fill="#F2F2F2"/>
<g clip-path="url(#clip0_0_1)">
<rect width="1440" height="4175" transform="translate(-177 -1505)" fill="white"/>
<g filter="url(#filter0_d_0_1)">
<rect x="-31" y="-29" width="344" height="351" rx="15" fill="white"/>
</g>
<rect width="76" height="76" rx="38" fill="#5C96FF"/>
<path d="M38 38C38 44 33.031 48.969 27.031 48.969C21.031 48.969 15.968 44 15.968 38H37.999H38ZM38 38C32 38 27.031 33.031 27.031 27.031C27.031 21.031 32 15.968 38 15.968V37.999V38ZM38 38C44 38 48.969 42.969 48.969 48.969C48.969 54.969 44 60.032 38 60.032V38.001V38ZM38 38C38 32 42.969 27.031 48.969 27.031C54.969 27.031 60.032 32 60.032 38H38.001H38Z" fill="#333333"/>
</g>
<defs>
<filter id="filter0_d_0_1" x="-108" y="-106" width="498" height="505" filterUnits="userSpaceOnUse" color-interpolation-filters="sRGB">
<feFlood flood-opacity="0" result="BackgroundImageFix"/>
<feColorMatrix in="SourceAlpha" type="matrix" values="0 0 0 0 0 0 0 0 0 0 0 0 0 0 0 0 0 0 127 0" result="hardAlpha"/>
<feOffset/>
<feGaussianBlur stdDeviation="38.5"/>
<feColorMatrix type="matrix" values="0 0 0 0 0 0 0 0 0 0 0 0 0 0 0 0 0 0 0.06 0"/>
<feBlend mode="normal" in2="BackgroundImageFix" result="effect1_dropShadow_0_1"/>
<feBlend mode="normal" in="SourceGraphic" in2="effect1_dropShadow_0_1" result="shape"/>
</filter>
<clipPath id="clip0_0_1">
<rect width="1440" height="4175" fill="white" transform="translate(-177 -1505)"/>
</clipPath>
</defs>
</svg>
