<svg width="70" height="70" viewBox="0 0 70 70" fill="none" xmlns="http://www.w3.org/2000/svg">
<path d="M42.8665 26.3C42.7332 26.4333 42.5998 26.5667 42.4332 26.7C42.0998 27 41.6665 27 41.3998 26.7C41.0998 26.4 41.0998 25.9667 41.3998 25.6667C41.7665 25.2667 42.1332 24.9 42.5332 24.5333C43.6332 23.4333 44.7332 22.3333 45.8332 21.2333C46.4998 20.5667 46.4665 19.4667 45.8332 18.7667C45.1665 18.0667 44.0998 17.9667 43.3332 18.5667C42.7332 19.0333 42.2998 19.6667 41.7332 20.1667C41.1665 20.6667 40.6665 21.2333 40.1332 21.7667C39.0998 22.8 38.0665 23.8333 36.9998 24.9C36.0998 25.8 35.2332 26.6667 34.3332 27.5667C34.0665 27.8333 33.5665 27.8333 33.3332 27.6C33.0332 27.3 32.9998 26.8667 33.2998 26.5667C33.3665 26.5 33.4332 26.4333 33.4665 26.3667C35.2332 24.6 36.9998 22.8333 38.7998 21.0667C38.9665 20.9 39.0998 20.7333 39.1998 20.5333C39.5998 19.7 39.3665 18.7333 38.6665 18.2667C37.8332 17.7 36.9332 17.7667 36.2332 18.4667C35.9332 18.7667 35.6332 19.0667 35.2998 19.3667C35.1998 19.4667 35.0998 19.5333 34.9665 19.5333C34.6332 19.6 34.3332 19.4333 34.1665 19.1333C33.9998 18.8333 34.0998 18.5 34.3665 18.2333C35.7332 16.8667 37.0998 15.4667 38.4998 14.1C39.2332 13.3667 39.2332 12.2333 38.4998 11.5C37.8332 10.8 36.6332 10.8 35.9332 11.5C35.0998 12.3 34.2998 13.1333 33.4665 13.9667C31.9998 15.4333 30.4998 16.9333 29.0332 18.4C28.6665 18.7667 28.1998 18.8 27.8665 18.4667C27.5665 18.1333 27.5998 17.7 27.9665 17.3333C28.5998 16.7 29.2665 16.0667 29.8665 15.4333C30.5665 14.6667 30.5332 13.5333 29.7665 12.8333C29.0665 12.1667 27.9332 12.2 27.1998 12.9C25.7332 14.3667 24.2665 15.8333 22.7998 17.3C22.0332 18.0667 22.0332 19.1333 22.7665 19.9333C23.4332 20.6333 24.5998 20.6667 25.3665 19.9667C25.5332 19.8 25.6998 19.6333 25.8665 19.5C26.2665 19.1667 26.8332 19.3 27.0332 19.8C27.1998 20.2 26.9998 20.5 26.7332 20.7333C25.3332 22.1333 23.9332 23.5 22.5665 24.9C21.8332 25.6333 21.7665 26.7667 22.4332 27.4667C23.1998 28.2667 24.2998 28.3 25.0665 27.5667C25.7665 26.8667 26.4665 26.1667 27.1665 25.4667C28.8332 23.8 30.5332 22.1 32.1998 20.4333C32.5332 20.1 32.9998 20.1 33.2665 20.3667C33.5665 20.6667 33.5665 21.1333 33.2332 21.4667C31.7998 22.9 30.3332 24.3333 28.8998 25.8C27.6998 27 26.4998 28.2 25.2998 29.4C24.5998 30.1333 24.5665 31.1667 25.2332 31.9333C25.8332 32.6333 26.9332 32.7667 27.6665 32.2C27.9998 31.9667 28.2665 31.6333 28.5665 31.3333C29.4332 30.4667 30.2998 29.5667 31.1998 28.7C31.6332 28.2667 32.2665 28.4 32.4665 28.9333C32.5998 29.2667 32.4665 29.5333 32.2332 29.7667C31.3998 30.6 30.5665 31.4333 29.7665 32.2667C29.0665 33 29.0998 34.1 29.8332 34.8333C30.4998 35.5 31.6332 35.5333 32.3332 34.8667C32.6332 34.5667 32.9665 34.2667 33.2665 33.9667C35.2998 31.9333 37.3332 29.9 39.3665 27.8667C39.6665 27.5667 40.0998 27.5667 40.3998 27.8C40.6998 28.0667 40.7332 28.4667 40.4665 28.8333C40.3332 29 40.1998 29.1333 40.0332 29.2667C39.4665 29.8333 39.2998 30.5667 39.5998 31.3C39.8665 32 40.5332 32.4333 41.2665 32.4333C41.6998 32.4333 42.1332 32.3333 42.4332 32.0333C43.4998 31 44.5332 29.9667 45.5665 28.9C46.2665 28.1667 46.1998 27.0667 45.4998 26.3667C44.7332 25.6 43.5998 25.6 42.8665 26.3Z" fill="white"/>
<path d="M41.5333 17.5C42.5666 17.5 43.3999 16.7 43.3999 15.6333C43.3999 14.6667 42.5666 13.8333 41.5999 13.8C40.5666 13.8 39.7666 14.6333 39.7666 15.6333C39.7333 16.6667 40.5666 17.5 41.5333 17.5Z" fill="white"/>
<path d="M32.233 12.2C33.2663 12.2 34.0996 11.4 34.0996 10.3333C34.0996 9.36667 33.2663 8.53333 32.2996 8.5C31.2663 8.5 30.4663 9.33333 30.4663 10.3333C30.4663 11.4 31.2663 12.2 32.233 12.2Z" fill="white"/>
<path d="M47.6663 22.5C46.633 22.5 45.833 23.3333 45.833 24.3333C45.833 25.3333 46.633 26.1667 47.5997 26.1667C48.633 26.1667 49.4663 25.3667 49.4663 24.3C49.4663 23.3333 48.633 22.5 47.6663 22.5Z" fill="white"/>
<path d="M14.4665 51C14.4332 51.2666 14.1998 51.4333 13.9332 51.4333H11.4665C10.4332 51.4333 9.69984 51.3 9.2665 51.0666C8.83317 50.8 8.63317 50.3333 8.63317 49.6333C8.63317 49.3 8.6665 48.9333 8.7665 48.5L9.59984 44.2333H8.83317C8.49984 44.2333 8.23317 43.9333 8.29983 43.6L8.53317 42.3333C8.53317 42.2666 8.5665 42.1666 8.63317 42.1L10.2998 39.9C10.3998 39.7666 10.5665 39.7 10.7332 39.7H12.7332C13.0665 39.7 13.3332 40 13.2665 40.3333L12.8998 42.2H15.1665C15.4998 42.2 15.7665 42.5 15.6998 42.8333L15.4998 43.8C15.4665 44.0666 15.2332 44.2333 14.9665 44.2333H12.4998L11.5998 48.7666C11.5998 48.8333 11.5998 48.8666 11.5998 48.9C11.5998 49.0666 11.7332 49.1333 12.0332 49.1333H14.1998C14.5332 49.1333 14.7998 49.4333 14.7332 49.7666L14.4665 51Z" fill="white"/>
<path d="M29.6333 51C29.6 51.2666 29.3666 51.4333 29.1 51.4333H21.9333C20.7 51.4333 19.8666 51.2333 19.4 50.8666C18.9666 50.5 18.8333 49.7666 19.0333 48.7L19.8 44.8333C20.0333 43.7 20.3666 42.9666 20.8666 42.6333C21.3666 42.2666 22.2 42.1 23.3666 42.1H28.0666C29.3 42.1 30.1333 42.2666 30.6 42.6333C31.0666 43 31.2 43.7333 30.9666 44.8L30.4666 47.3666C30.4333 47.6333 30.2 47.8 29.9333 47.8H22L21.7666 48.9333C21.7333 49.0666 21.7333 49.1666 21.8 49.2333C21.8666 49.2666 21.9666 49.3 22.1666 49.3H29.3333C29.6666 49.3 29.9333 49.6 29.8666 49.9333L29.6333 51ZM27.9666 46L28.2333 44.5C28.2666 44.3333 28.2666 44.2333 28.2 44.2C28.1333 44.1666 28.0333 44.1333 27.8666 44.1333H23.1666C23 44.1333 22.8666 44.1666 22.8 44.2C22.7333 44.2333 22.6666 44.3333 22.6333 44.5L22.3666 46H27.9666Z" fill="white"/>
<path d="M45.1666 51C45.1332 51.2667 44.8999 51.4333 44.6332 51.4333H37.8332C36.7999 51.4333 36.0666 51.3 35.5999 51.0667C35.1332 50.8333 34.8999 50.3333 34.8999 49.6333C34.8999 49.3667 34.9332 49.0333 34.9999 48.6667L35.7332 44.9667C35.9666 43.8667 36.3332 43.1333 36.8332 42.7667C37.3332 42.4 38.1999 42.2 39.3666 42.2H45.9999C46.3332 42.2 46.5999 42.5 46.5332 42.8333L46.3332 43.9C46.2999 44.1667 46.0666 44.3333 45.7999 44.3333H39.2999C39.1332 44.3333 38.9999 44.3667 38.9332 44.4C38.8666 44.4333 38.7999 44.5333 38.7999 44.7L37.9999 48.8C37.9666 48.8667 37.9666 48.9 37.9666 48.9333C37.9666 49.1 38.0999 49.1667 38.3666 49.1667H44.8999C45.2332 49.1667 45.4999 49.4667 45.4332 49.8L45.1666 51Z" fill="white"/>
<path d="M61.0665 51.4333H59.1665C58.8332 51.4333 58.5665 51.1333 58.6332 50.8L59.8332 44.6667C59.8332 44.6 59.8332 44.5333 59.8332 44.5333C59.8332 44.4333 59.7999 44.3667 59.7665 44.3333C59.6999 44.3 59.5999 44.3 59.4665 44.3H54.4332L53.1332 51C53.0999 51.2667 52.8665 51.4333 52.5999 51.4333H50.6999C50.3665 51.4333 50.0999 51.1333 50.1665 50.8L52.4665 39C52.4999 38.7333 52.7332 38.5667 52.9999 38.5667H54.8999C55.2332 38.5667 55.4999 38.8667 55.4332 39.2L54.8665 42.2H59.9999C61.0332 42.2 61.7665 42.3333 62.1999 42.5667C62.6332 42.8 62.8665 43.3 62.8665 44C62.8665 44.2667 62.8332 44.6 62.7665 44.9666L61.5999 51C61.5332 51.2333 61.3332 51.4333 61.0665 51.4333Z" fill="white"/>
<path d="M12.8331 59.2H9.33313L8.96647 61.1333C8.93313 61.3333 8.76647 61.4666 8.56647 61.4666H7.53313C7.26647 61.4666 7.0998 61.2333 7.13313 61L8.53313 53.8C8.56647 53.6 8.73313 53.4666 8.93313 53.4666H13.8998C14.5331 53.4666 14.9998 53.5333 15.2665 53.7C15.5331 53.8666 15.6665 54.1333 15.6665 54.5666C15.6665 54.7333 15.6331 54.9333 15.5998 55.1666L15.1665 57.4666C15.0331 58.1666 14.7998 58.6 14.4665 58.8333C14.0998 59.1 13.5665 59.2 12.8331 59.2ZM13.2665 57.5666L13.7665 55.0333C13.7665 55 13.7665 54.9666 13.7665 54.9333C13.7665 54.8666 13.7331 54.8333 13.6998 54.8333C13.6665 54.8333 13.5998 54.8 13.4998 54.8H10.1998L9.5998 57.8H12.9665C13.0665 57.8 13.1331 57.8 13.1998 57.7666C13.2331 57.7 13.2665 57.6666 13.2665 57.5666Z" fill="white"/>
<path d="M23.8663 58.9C23.833 59.1 23.6663 59.2333 23.4663 59.2333H19.0663C18.2997 59.2333 17.7663 59.1333 17.4997 58.9C17.233 58.6666 17.133 58.2333 17.2663 57.5333L17.733 55.1333C17.8663 54.4333 18.0997 53.9666 18.3997 53.7666C18.6997 53.5333 19.233 53.4333 19.9663 53.4333H22.8997C23.6663 53.4333 24.1997 53.5333 24.4663 53.7666C24.7663 54 24.833 54.4333 24.6997 55.1L24.3997 56.6333C24.3663 56.8333 24.1997 56.9666 23.9997 56.9666H19.133L18.9997 57.6666C18.9663 57.7666 18.9997 57.8333 19.033 57.8333C19.0663 57.8666 19.133 57.8666 19.2663 57.8666H23.633C23.8997 57.8666 24.0663 58.1 24.033 58.3333L23.8663 58.9ZM22.833 55.8333L22.9997 54.9C23.033 54.8 23.033 54.7333 22.9663 54.7C22.933 54.6666 22.8663 54.6666 22.7663 54.6666H19.833C19.733 54.6666 19.6663 54.6666 19.5997 54.7C19.5663 54.7333 19.533 54.8 19.4997 54.9L19.333 55.8333H22.833Z" fill="white"/>
<path d="M31.6663 59.2666H28.133C27.3663 59.2666 26.8663 59.1666 26.5997 58.9333C26.333 58.7 26.2663 58.2333 26.3997 57.5666L26.8663 55.1333C26.9997 54.4333 27.233 53.9666 27.533 53.7666C27.833 53.5333 28.333 53.4333 29.0663 53.4333H32.5997C33.3663 53.4333 33.8663 53.5666 34.133 53.7666C34.3997 53.9666 34.4663 54.4666 34.3663 55.1333L33.8997 57.5666C33.7663 58.2666 33.533 58.7333 33.233 58.9333C32.8997 59.1666 32.3663 59.2666 31.6663 59.2666ZM31.9997 57.6333L32.4997 54.9666C32.4997 54.8666 32.4997 54.8 32.4663 54.7666C32.433 54.7333 32.3663 54.7333 32.2663 54.7333H29.0663C28.9663 54.7333 28.8663 54.7333 28.833 54.7666C28.7997 54.8 28.7663 54.8666 28.733 54.9666L28.233 57.6333C28.1997 57.7333 28.233 57.8 28.2663 57.8333C28.2997 57.8666 28.3663 57.8666 28.4997 57.8666H31.6663C31.7663 57.8666 31.833 57.8666 31.8997 57.8333C31.933 57.7666 31.9663 57.7 31.9997 57.6333Z" fill="white"/>
<path d="M41.1329 59.2H37.6329L37.2663 61.1333C37.2329 61.3333 37.0663 61.4666 36.8663 61.4666H35.8329C35.5663 61.4666 35.3996 61.2333 35.4329 61L36.8329 53.8C36.8663 53.6 37.0329 53.4666 37.2329 53.4666H42.1996C42.8329 53.4666 43.2996 53.5333 43.5663 53.7C43.8329 53.8666 43.9663 54.1333 43.9663 54.5666C43.9663 54.7333 43.9329 54.9333 43.8996 55.1666L43.4663 57.4666C43.3329 58.1666 43.0996 58.6 42.7663 58.8333C42.3996 59.1 41.8663 59.2 41.1329 59.2ZM41.5663 57.5666L42.0663 55.0333C42.0663 55 42.0663 54.9666 42.0663 54.9333C42.0663 54.8666 42.0329 54.8333 41.9996 54.8333C41.9663 54.8333 41.8996 54.8 41.7996 54.8H38.4329L37.8329 57.8H41.1996C41.2996 57.8 41.3663 57.8 41.4329 57.7666C41.5329 57.7 41.5663 57.6666 41.5663 57.5666Z" fill="white"/>
<path d="M49.0664 58.9C49.0331 59.1 48.8664 59.2333 48.6664 59.2333H47.3331C46.6997 59.2333 46.2331 59.1666 45.9664 59.0333C45.6997 58.9 45.5664 58.6333 45.5664 58.2C45.5664 58 45.5997 57.7666 45.6331 57.5L46.7997 51.5666C46.8331 51.3666 46.9997 51.2333 47.1997 51.2333H48.2331C48.4997 51.2333 48.6664 51.4666 48.6331 51.7L47.4997 57.5666C47.4997 57.6 47.4664 57.6333 47.4664 57.6333C47.4664 57.7333 47.5664 57.7666 47.7331 57.7666H48.7664C49.0331 57.7666 49.1997 58 49.1664 58.2333L49.0664 58.9Z" fill="white"/>
<path d="M57.5333 58.9C57.5 59.1 57.3333 59.2333 57.1333 59.2333H52.7333C51.9666 59.2333 51.4333 59.1333 51.1666 58.9C50.9 58.6666 50.8 58.2333 50.9333 57.5333L51.4 55.1333C51.5333 54.4333 51.7666 53.9666 52.0666 53.7666C52.3666 53.5333 52.9 53.4333 53.6333 53.4333H56.5666C57.3333 53.4333 57.8666 53.5333 58.1333 53.7666C58.4333 54 58.5 54.4333 58.3666 55.1L58.0666 56.6333C58.0333 56.8333 57.8666 56.9666 57.6666 56.9666H52.8L52.6666 57.6666C52.6333 57.7666 52.6666 57.8333 52.7 57.8333C52.7333 57.8666 52.8 57.8666 52.9333 57.8666H57.3C57.5666 57.8666 57.7333 58.1 57.7 58.3333L57.5333 58.9ZM56.4666 55.8333L56.6333 54.9C56.6666 54.8 56.6666 54.7333 56.6 54.7C56.5666 54.6666 56.5 54.6666 56.4 54.6666H53.4666C53.3666 54.6666 53.3 54.6666 53.2333 54.7C53.2 54.7333 53.1666 54.8 53.1333 54.9L52.9666 55.8333H56.4666Z" fill="white"/>
</svg>
